<svg width="985" height="340" viewBox="0 0 985 340" fill="none" xmlns="http://www.w3.org/2000/svg">
<path d="M657 170C657 262.829 583.531 338 493 338C402.47 338 329 262.829 329 170C329 77.171 402.47 2 493 2C583.531 2 657 77.171 657 170Z" stroke="#EDEDED" stroke-width="4"/>
<path d="M821 170C821 215.81 784.914 257.787 725.43 288.43C666.049 319.02 583.876 338 493 338C402.125 338 319.952 319.02 260.571 288.43C201.087 257.787 165 215.81 165 170C165 124.19 201.087 82.2132 260.571 51.5698C319.952 20.9796 402.125 2 493 2C583.876 2 666.049 20.9796 725.43 51.5698C784.914 82.2132 821 124.19 821 170Z" stroke="#EDEDED" stroke-width="4"/>
<path d="M983 170C983 192.627 969.72 214.475 945.033 234.622C920.361 254.756 884.54 272.977 840.098 288.318C751.234 318.992 628.339 338 492.5 338C356.661 338 233.767 318.992 144.903 288.318C100.461 272.977 64.6396 254.756 39.9681 234.622C15.2813 214.475 2.00049 192.627 2.00049 170C2.00049 147.373 15.2813 125.525 39.9681 105.378C64.6396 85.2436 100.461 67.0227 144.903 51.6824C233.767 21.0084 356.661 2 492.5 2C628.339 2 751.234 21.0084 840.098 51.6824C884.54 67.0227 920.361 85.2436 945.033 105.378C969.72 125.525 983 147.373 983 170Z" stroke="#EDEDED" stroke-width="4"/>
<line x1="493" y1="4" x2="493" y2="339" stroke="#EDEDED" stroke-width="4"/>
<line x1="985" y1="170" x2="-1.0607e-10" y2="170" stroke="#EDEDED" stroke-width="4"/>
</svg>
