<svg width="1160" height="40" viewBox="0 0 1160 40" fill="none" xmlns="http://www.w3.org/2000/svg">
<g clip-path="url(#clip0_531_2)">
<path d="M92.9957 11.4539C97.6162 22.7364 92.4259 35.5202 81.4354 40.0211C70.4448 44.5221 57.7786 39.0511 53.1581 27.7686C48.5376 16.486 53.7279 3.70227 64.7184 -0.798672C75.709 -5.29962 88.3751 0.171371 92.9957 11.4539Z" stroke="#EDEDED"/>
<path d="M113.132 3.20747C115.385 8.70885 113.134 15.5827 107.391 22.3126C101.667 29.0204 92.5659 35.4627 81.4355 40.021C70.3052 44.5792 59.2993 46.3714 50.5147 45.6052C41.7012 44.8365 35.2754 41.516 33.0224 36.0147C30.7694 30.5133 33.0204 23.6394 38.763 16.9095C44.4867 10.2018 53.5883 3.75938 64.7186 -0.798836C75.849 -5.35705 86.8549 -7.14926 95.6395 -6.38307C104.453 -5.61434 110.879 -2.29391 113.132 3.20747Z" stroke="#EDEDED"/>
<path d="M133.022 -4.93791C134.122 -2.25162 133.622 1.02092 131.621 4.70456C129.622 8.38386 126.162 12.4012 121.488 16.5094C112.144 24.7225 98.0349 33.2233 81.3741 40.0464C64.7133 46.8695 48.6945 50.7069 36.2737 51.4072C30.0607 51.7575 24.7767 51.3211 20.7714 50.1006C16.7614 48.8787 14.1093 46.8972 13.0092 44.2109C11.9091 41.5247 12.4095 38.2521 14.4106 34.5685C16.4092 30.8892 19.8693 26.8718 24.5433 22.7636C33.8874 14.5506 47.9964 6.04972 64.6572 -0.773383C81.318 -7.59648 97.3368 -11.4339 109.758 -12.1342C115.971 -12.4845 121.255 -12.0481 125.26 -10.8276C129.27 -9.60567 131.922 -7.6242 133.022 -4.93791Z" stroke="#EDEDED"/>
<line x1="64.9476" y1="-0.858924" x2="81.7921" y2="40.2724" stroke="#EDEDED"/>
<line x1="133.573" y1="-4.91034" x2="12.6349" y2="44.6175" stroke="#EDEDED"/>
<g filter="url(#filter0_d_531_2)">
<path d="M181.06 -12.8658L181.227 -12.2117C184.112 -0.899395 191.794 8.58808 202.26 13.7618L202.865 14.0609L202.211 14.2277C190.899 17.1125 181.411 24.7953 176.237 35.2606L175.938 35.8658L175.771 35.2116C172.887 23.8993 165.204 14.4119 154.739 9.2382L154.133 8.93903L154.788 8.77222C166.1 5.88746 175.587 -1.79535 180.761 -12.2607L181.06 -12.8658Z" fill="#D9D9D9"/>
</g>
<path d="M904.075 8.12277L903.997 8.79323C902.636 20.388 906.408 31.9986 914.324 40.579L914.782 41.0752L914.112 40.9965C902.517 39.6357 890.906 43.4082 882.326 51.3243L881.83 51.7821L881.908 51.1116C883.269 39.5169 879.497 27.9063 871.581 19.3258L871.123 18.8297L871.793 18.9083C883.388 20.2692 894.999 16.4966 903.579 8.58052L904.075 8.12277Z" fill="#D9D9D9"/>
<path d="M351.452 26.2485L353.093 26.0559L351.973 27.2705C343.958 35.9582 340.138 47.7139 341.516 59.4536L341.709 61.0948L340.494 59.9743C331.806 51.9592 320.051 48.1395 308.311 49.5173L306.67 49.71L307.79 48.4954C315.805 39.8077 319.625 28.052 318.247 16.3123L318.055 14.6711L319.269 15.7916C327.957 23.8067 339.713 27.6264 351.452 26.2485Z" stroke="#D9D9D9"/>
<path d="M746.33 28.4125L747.609 29.4592L745.957 29.4969C734.14 29.7663 723.03 35.1849 715.542 44.3311L714.496 45.6097L714.458 43.9577C714.189 32.1405 708.77 21.0308 699.624 13.5431L698.345 12.4963L699.997 12.4586C711.814 12.1892 722.924 6.77063 730.412 -2.37554L731.459 -3.65417L731.496 -2.00214C731.766 9.81503 737.184 20.9248 746.33 28.4125Z" stroke="#D9D9D9"/>
<path d="M293.106 -18.9688C297.764 -14.3111 297.926 -5.80939 294.1 4.39297C290.292 14.5489 282.593 26.1918 271.893 36.8927C261.192 47.5935 249.549 55.2919 239.393 59.1004C229.191 62.9263 220.689 62.7635 216.031 58.1059C211.374 53.4482 211.211 44.9465 215.037 34.7441C218.845 24.5882 226.544 12.9452 237.244 2.24442C247.945 -8.45641 259.588 -16.1548 269.744 -19.9633C279.946 -23.7892 288.448 -23.6264 293.106 -18.9688Z" stroke="#D9D9D9"/>
<path d="M281.792 -7.65522C285.496 -3.95134 286.004 2.42717 283.592 9.91512C281.19 17.3748 275.928 25.786 268.357 33.357C260.786 40.9279 252.375 46.1902 244.915 48.5925C237.427 51.0038 231.049 50.4959 227.345 46.792C223.641 43.0881 223.133 36.7096 225.544 29.2217C227.947 21.762 233.209 13.3508 240.78 5.77981C248.351 -1.79117 256.762 -7.05341 264.222 -9.45568C271.71 -11.8671 278.088 -11.3591 281.792 -7.65522Z" stroke="#D9D9D9"/>
<path d="M384.422 62.4258L382.323 85.787L358.747 78.2504L370.588 58.0034L370.603 57.9766L370.616 57.9479L379.91 36.2585L379.912 36.2537L397.694 -2.94407L389.443 39.3002L389.442 39.3054L384.432 62.3644L384.425 62.3948L384.422 62.4258Z" stroke="#D9D9D9"/>
<g filter="url(#filter1_d_531_2)">
<path d="M447.776 -10.3551L453.387 -5.69833C455.745 -3.74107 458.84 -2.91166 461.861 -3.42767L469.048 -4.65537C477.741 -6.14034 483.59 3.99058 477.958 10.7765L473.301 16.3868C471.344 18.7448 470.514 21.8402 471.03 24.861L472.258 32.048C473.743 40.7411 463.612 46.5901 456.826 40.9576L451.216 36.3009C448.858 34.3436 445.762 33.5142 442.742 34.0302L435.555 35.2579C426.861 36.7429 421.012 26.612 426.645 19.8261L431.302 14.2158C433.259 11.8577 434.088 8.7623 433.572 5.74154L432.345 -1.44548C430.86 -10.1385 440.991 -15.9876 447.776 -10.3551Z" stroke="#D9D9D9" shape-rendering="crispEdges"/>
</g>
<path d="M563.876 8.58191C573.557 18.3706 580.97 28.541 585.135 37.0581C587.218 41.319 588.476 45.1402 588.813 48.2773C589.151 51.4208 588.558 53.7909 587.058 55.275C585.557 56.759 583.181 57.3256 580.041 56.9533C576.908 56.5817 573.101 55.2819 568.863 53.1516C560.392 48.8934 550.304 41.3695 540.622 31.5808C530.941 21.7921 523.528 11.6217 519.363 3.10466C517.28 -1.15629 516.022 -4.97748 515.685 -8.11459C515.347 -11.2581 515.94 -13.6282 517.44 -15.1123C518.941 -16.5963 521.317 -17.1629 524.457 -16.7906C527.59 -16.419 531.397 -15.1192 535.635 -12.9889C544.106 -8.73072 554.194 -1.20679 563.876 8.58191Z" stroke="#EDEDED"/>
<path d="M575.713 -3.12661C585.363 6.62925 591.432 18.0668 593.464 28.6534C595.495 39.2438 593.481 48.9223 587.058 55.2747C580.636 61.6271 570.935 63.5353 560.368 61.3871C549.804 59.2397 538.434 53.0447 528.785 43.2888C519.136 33.533 513.066 22.0954 511.035 11.5088C509.003 0.918375 511.018 -8.76009 517.44 -15.1125C523.863 -21.4649 533.563 -23.3731 544.13 -21.2249C554.694 -19.0775 566.064 -12.8825 575.713 -3.12661Z" stroke="#EDEDED"/>
<path d="M587.407 -14.6922C606.631 4.74465 606.459 36.0858 587.022 55.3103C567.585 74.5347 536.244 74.3624 517.019 54.9255C497.795 35.4886 497.967 4.14744 517.404 -15.077C536.841 -34.3014 568.182 -34.1291 587.407 -14.6922Z" stroke="#EDEDED"/>
<line x1="518.127" y1="-14.8409" x2="587.414" y2="55.2118" stroke="#EDEDED"/>
<line x1="587.7" y1="-15.1069" x2="516.602" y2="55.2141" stroke="#EDEDED"/>
<g filter="url(#filter2_d_531_2)">
<rect x="642.587" y="-16.3203" width="39" height="39" rx="7.5" transform="rotate(29 642.587 -16.3203)" stroke="#D9D9D9" shape-rendering="crispEdges"/>
</g>
<g filter="url(#filter3_d_531_2)">
<path d="M857.992 -9.24033C861.526 -3.6817 859.837 4.65218 853.885 13.7791C847.96 22.8645 837.915 32.5559 825.145 40.6752C812.374 48.7944 799.336 53.7783 788.595 55.2884C777.805 56.8054 769.542 54.7987 766.008 49.2401C762.474 43.6815 764.163 35.3476 770.115 26.2207C776.04 17.1352 786.084 7.44386 798.855 -0.675398C811.626 -8.79466 824.664 -13.7785 835.405 -15.2886C846.195 -16.8056 854.458 -14.799 857.992 -9.24033Z" stroke="#D9D9D9"/>
<path d="M844.49 -0.655957C847.3 3.7644 846.409 10.1008 842.428 16.8857C838.462 23.6449 831.498 30.7113 822.462 36.4558C813.427 42.2003 804.073 45.5086 796.269 46.2321C788.436 46.9584 782.321 45.0763 779.51 40.6559C776.7 36.2356 777.59 29.8991 781.572 23.1143C785.538 16.355 792.502 9.28862 801.538 3.54414C810.573 -2.20034 819.927 -5.50867 827.731 -6.23219C835.564 -6.95846 841.679 -5.07631 844.49 -0.655957Z" stroke="#D9D9D9"/>
<path d="M834.363 5.78192C836.601 9.30141 836.264 14.0945 833.735 19.0778C831.213 24.0497 826.545 29.1194 820.316 33.0799C814.086 37.0404 807.515 39.1158 801.943 39.2905C796.358 39.4657 791.874 37.7369 789.637 34.2174C787.399 30.6979 787.736 25.9048 790.264 20.9215C792.787 15.9496 797.454 10.8799 803.684 6.91936C809.913 2.95885 816.484 0.883508 822.057 0.70875C827.642 0.533595 832.125 2.26244 834.363 5.78192Z" stroke="#D9D9D9"/>
</g>
<g filter="url(#filter4_d_531_2)">
<path d="M1006.14 63.0763C1002.29 66.4295 995.683 66.1271 987.906 62.5893C980.174 59.072 971.481 52.4323 963.682 43.4903C955.882 34.5482 950.486 25.0333 948.052 16.8953C945.604 8.70983 946.203 2.12107 950.047 -1.23217C953.892 -4.58542 960.501 -4.28303 968.278 -0.745213C976.009 2.77207 984.703 9.41176 992.502 18.3538C1000.3 27.2959 1005.7 36.8108 1008.13 44.9488C1010.58 53.1343 1009.98 59.723 1006.14 63.0763Z" stroke="#D9D9D9"/>
<path d="M1018.46 44.7463C1016.8 49.5726 1010.93 52.6152 1002.42 53.4398C993.97 54.2596 983.122 52.856 971.896 49.0115C960.671 45.167 951.24 39.6252 945.063 33.7945C938.85 27.9296 936.074 21.9243 937.727 17.098C939.38 12.2717 945.255 9.22905 953.759 8.40446C962.213 7.58466 973.062 8.98822 984.287 12.8327C995.512 16.6772 1004.94 22.219 1011.12 28.0498C1017.33 33.9146 1020.11 39.9199 1018.46 44.7463Z" stroke="#D9D9D9"/>
<path d="M986.302 72.7906C981.296 73.7723 975.723 70.2059 970.757 63.2536C965.82 56.3417 961.612 46.245 959.328 34.6014C957.045 22.9577 957.129 12.0193 959.09 3.75465C961.063 -4.55823 964.876 -9.96496 969.882 -10.9466C974.888 -11.9283 980.46 -8.36194 985.426 -1.40968C990.364 5.50224 994.572 15.599 996.855 27.2426C999.139 38.8862 999.055 49.8247 997.094 58.0893C995.121 66.4022 991.308 71.8089 986.302 72.7906Z" stroke="#D9D9D9"/>
</g>
<g clip-path="url(#clip1_531_2)">
<rect x="1022.04" y="28.2518" width="45" height="45" transform="rotate(-11.7638 1022.04 28.2518)" stroke="#D9D9D9"/>
<rect x="1057.7" y="-26.1603" width="45" height="45" transform="rotate(-11.7638 1057.7 -26.1603)" stroke="#D9D9D9"/>
</g>
<rect x="1031.59" y="-4.38002" width="59" height="59" rx="29.5" transform="rotate(-11.7638 1031.59 -4.38002)" stroke="#D9D9D9"/>
<path d="M1174.85 -25.6321C1181 -23.2716 1184.61 -15.571 1185.26 -4.69461C1185.91 6.13236 1183.62 19.8999 1178.19 34.028C1172.77 48.1561 1165.26 59.9246 1157.53 67.5346C1149.77 75.1794 1141.94 78.4887 1135.79 76.1282C1129.64 73.7676 1126.03 66.0671 1125.38 55.1906C1124.73 44.3637 1127.02 30.5961 1132.45 16.468C1137.87 2.33989 1145.37 -9.42857 1153.1 -17.0386C1160.87 -24.6834 1168.7 -27.9927 1174.85 -25.6321Z" stroke="#D9D9D9"/>
<path d="M1170.18 -27.4236C1176.33 -25.0631 1179.94 -17.3626 1180.59 -6.48611C1181.24 4.34085 1178.95 18.1084 1173.52 32.2365C1168.1 46.3646 1160.6 58.1331 1152.87 65.7431C1145.1 73.3879 1137.27 76.6972 1131.12 74.3366C1124.97 71.9761 1121.36 64.2756 1120.71 53.3991C1120.06 42.5722 1122.36 28.8046 1127.78 14.6765C1133.2 0.548382 1140.71 -11.2201 1148.44 -18.8301C1156.2 -26.4749 1164.03 -29.7842 1170.18 -27.4236Z" stroke="#D9D9D9"/>
<path d="M1164.58 -29.574C1170.73 -27.2135 1174.34 -19.5129 1174.99 -8.6365C1175.64 2.19046 1173.35 15.958 1167.92 30.0861C1162.5 44.2142 1154.99 55.9827 1147.27 63.5927C1139.5 71.2375 1131.67 74.5468 1125.52 72.1863C1119.37 69.8257 1115.76 62.1252 1115.11 51.2487C1114.46 40.4218 1116.75 26.6542 1122.18 12.5261C1127.6 -1.60201 1135.11 -13.3705 1142.83 -20.9805C1150.6 -28.6253 1158.43 -31.9346 1164.58 -29.574Z" stroke="#D9D9D9"/>
</g>
<defs>
<filter id="filter0_d_531_2" x="150.133" y="-16.8657" width="56.7314" height="56.7314" filterUnits="userSpaceOnUse" color-interpolation-filters="sRGB">
<feFlood flood-opacity="0" result="BackgroundImageFix"/>
<feColorMatrix in="SourceAlpha" type="matrix" values="0 0 0 0 0 0 0 0 0 0 0 0 0 0 0 0 0 0 127 0" result="hardAlpha"/>
<feOffset/>
<feGaussianBlur stdDeviation="2"/>
<feComposite in2="hardAlpha" operator="out"/>
<feColorMatrix type="matrix" values="0 0 0 0 0.85098 0 0 0 0 0.85098 0 0 0 0 0.85098 0 0 0 1 0"/>
<feBlend mode="normal" in2="BackgroundImageFix" result="effect1_dropShadow_531_2"/>
<feBlend mode="normal" in="SourceGraphic" in2="effect1_dropShadow_531_2" result="shape"/>
</filter>
<filter id="filter1_d_531_2" x="419.921" y="-17.0786" width="64.7598" height="64.7598" filterUnits="userSpaceOnUse" color-interpolation-filters="sRGB">
<feFlood flood-opacity="0" result="BackgroundImageFix"/>
<feColorMatrix in="SourceAlpha" type="matrix" values="0 0 0 0 0 0 0 0 0 0 0 0 0 0 0 0 0 0 127 0" result="hardAlpha"/>
<feOffset/>
<feGaussianBlur stdDeviation="2"/>
<feComposite in2="hardAlpha" operator="out"/>
<feColorMatrix type="matrix" values="0 0 0 0 0.85098 0 0 0 0 0.85098 0 0 0 0 0.85098 0 0 0 1 0"/>
<feBlend mode="normal" in2="BackgroundImageFix" result="effect1_dropShadow_531_2"/>
<feBlend mode="normal" in="SourceGraphic" in2="effect1_dropShadow_531_2" result="shape"/>
</filter>
<filter id="filter2_d_531_2" x="621.874" y="-18.126" width="56.6292" height="56.6294" filterUnits="userSpaceOnUse" color-interpolation-filters="sRGB">
<feFlood flood-opacity="0" result="BackgroundImageFix"/>
<feColorMatrix in="SourceAlpha" type="matrix" values="0 0 0 0 0 0 0 0 0 0 0 0 0 0 0 0 0 0 127 0" result="hardAlpha"/>
<feOffset/>
<feGaussianBlur stdDeviation="2"/>
<feComposite in2="hardAlpha" operator="out"/>
<feColorMatrix type="matrix" values="0 0 0 0 0.85098 0 0 0 0 0.85098 0 0 0 0 0.85098 0 0 0 1 0"/>
<feBlend mode="normal" in2="BackgroundImageFix" result="effect1_dropShadow_531_2"/>
<feBlend mode="normal" in="SourceGraphic" in2="effect1_dropShadow_531_2" result="shape"/>
</filter>
<filter id="filter3_d_531_2" x="759.674" y="-20.2773" width="104.651" height="80.5547" filterUnits="userSpaceOnUse" color-interpolation-filters="sRGB">
<feFlood flood-opacity="0" result="BackgroundImageFix"/>
<feColorMatrix in="SourceAlpha" type="matrix" values="0 0 0 0 0 0 0 0 0 0 0 0 0 0 0 0 0 0 127 0" result="hardAlpha"/>
<feOffset/>
<feGaussianBlur stdDeviation="2"/>
<feComposite in2="hardAlpha" operator="out"/>
<feColorMatrix type="matrix" values="0 0 0 0 0.771468 0 0 0 0 0.771468 0 0 0 0 0.771468 0 0 0 1 0"/>
<feBlend mode="normal" in2="BackgroundImageFix" result="effect1_dropShadow_531_2"/>
<feBlend mode="normal" in="SourceGraphic" in2="effect1_dropShadow_531_2" result="shape"/>
</filter>
<filter id="filter4_d_531_2" x="934.756" y="-13.6079" width="86.6704" height="89.0596" filterUnits="userSpaceOnUse" color-interpolation-filters="sRGB">
<feFlood flood-opacity="0" result="BackgroundImageFix"/>
<feColorMatrix in="SourceAlpha" type="matrix" values="0 0 0 0 0 0 0 0 0 0 0 0 0 0 0 0 0 0 127 0" result="hardAlpha"/>
<feOffset/>
<feGaussianBlur stdDeviation="1"/>
<feComposite in2="hardAlpha" operator="out"/>
<feColorMatrix type="matrix" values="0 0 0 0 0.647949 0 0 0 0 0.647949 0 0 0 0 0.647949 0 0 0 1 0"/>
<feBlend mode="normal" in2="BackgroundImageFix" result="effect1_dropShadow_531_2"/>
<feBlend mode="normal" in="SourceGraphic" in2="effect1_dropShadow_531_2" result="shape"/>
</filter>
<clipPath id="clip0_531_2">
<rect width="1160" height="40" fill="white"/>
</clipPath>
<clipPath id="clip1_531_2">
<rect x="1031" y="-4.76758" width="60" height="60" rx="30" transform="rotate(-11.7638 1031 -4.76758)" fill="white"/>
</clipPath>
</defs>
</svg>
